<svg id="Capa_1" enable-background="new 0 0 512 512" height="512" viewBox="0 0 512 512" width="512" xmlns="http://www.w3.org/2000/svg"><g><path d="m316 120c0-33.084-26.916-60-60-60s-60 26.916-60 60 26.916 60 60 60 60-26.916 60-60zm-90 0c0-16.542 13.458-30 30-30s30 13.458 30 30-13.458 30-30 30-30-13.458-30-30z"/><path d="m504.111 211.793c-4.856-2.616-10.761-2.353-15.368.684l-85.85 56.604-77.206-15.441c33.384-56.2 50.313-101.139 50.313-133.64 0-66.168-53.832-120-120-120s-120 53.832-120 120c0 26.205 11.008 60.499 32.768 102.257l-59.826-11.965c-3.82-.763-7.905.014-11.198 2.186l-91 60c-4.211 2.775-6.744 7.48-6.744 12.522v212c0 5.518 3.03 10.591 7.889 13.207 4.845 2.609 10.749 2.362 15.368-.684l85.85-56.604 293.952 58.79c3.939.788 8.026-.095 11.198-2.186l91-60c4.21-2.776 6.743-7.481 6.743-12.523v-212c0-5.518-3.03-10.591-7.889-13.207zm-248.111-181.793c49.626 0 90 40.374 90 90 0 50.428-57.052 139.554-90.003 184.976-32.95-45.401-89.997-134.496-89.997-184.976 0-49.626 40.374-90 90-90zm-11.84 309.209c2.842 3.654 7.211 5.791 11.84 5.791s8.998-2.137 11.84-5.791c.919-1.181 19.414-25.039 40.957-58.353l82.203 16.441v181.406l-270-54v-181.406l67.156 13.431c18.36 30.585 41.266 63.542 56.004 82.481zm-214.16-46.132 61-40.22v176.066l-61 40.22zm452 135.846-61 40.22v-176.066l61-40.22z"/></g></svg>