<?xml version="1.0" encoding="iso-8859-1"?>
<!-- Generator: Adobe Illustrator 19.0.0, SVG Export Plug-In . SVG Version: 6.00 Build 0)  -->
<svg version="1.1" id="Layer_1" xmlns="http://www.w3.org/2000/svg" xmlns:xlink="http://www.w3.org/1999/xlink" x="0px" y="0px"
	 viewBox="0 0 512.002 512.002" style="enable-background:new 0 0 512.002 512.002;" xml:space="preserve">
<g>
	<g>
		<circle cx="194.998" cy="45.002" r="44.999"/>
	</g>
</g>
<g>
	<g>
		<path d="M483.191,260.464c-18.301-23.427-44.024-40.38-72.435-47.738c-6.208-1.608-12.965,0.88-16.583,6.711
			c-1.495,2.409-2.178,5.236-2.178,8.071v25.496c0,8.284-6.716,15-15,15h-22.579l-21.88,60.529
			c4.869-0.619,9.784-0.932,14.728-0.932c26.484,0,51.78,8.813,73.156,25.486c5.341,4.166,11.332,6.368,17.323,6.368
			s11.982-2.202,17.323-6.368c7.033-5.485,14.594-10.18,22.474-13.958c6.042-2.896,12.765-4.426,19.443-4.426
			c5.122,0,10.128,0.894,14.833,2.55C510.408,309.499,500.374,282.461,483.191,260.464z"/>
	</g>
</g>
<g>
	<g>
		<path d="M111.526,436.497c-21.732,16.952-49.816,16.95-71.547,0.001c-5.871-4.58-12.194-8.416-18.793-11.401
			c-7.551-3.415-16.435-0.063-19.85,7.484c-3.414,7.548-0.063,16.435,7.484,19.849c4.434,2.006,8.709,4.604,12.706,7.722
			c16.031,12.504,34.782,19.114,54.225,19.114s38.193-6.609,54.225-19.114c9.699-7.565,20.739-11.78,31.937-12.65
			c2.853-7.92,6.757-18.77,10.73-29.814C151.309,416.131,129.581,422.415,111.526,436.497z"/>
	</g>
</g>
<g>
	<g>
		<path d="M111.526,376.497c-21.732,16.952-49.816,16.95-71.547,0.001c-5.871-4.58-12.194-8.416-18.793-11.401
			c-7.551-3.414-16.435-0.063-19.85,7.484c-3.414,7.548-0.063,16.435,7.484,19.849c4.434,2.006,8.709,4.604,12.706,7.722
			c16.031,12.504,34.782,19.114,54.225,19.114s38.193-6.609,54.225-19.114c15.558-12.135,34.951-15.566,52.678-10.298
			c3.533-9.823,6.156-17.118,6.679-18.574c0.038-0.105,0.557-1.546,0.557-1.546l0.09-0.196c1.033-2.678,2.212-5.272,3.526-7.777
			C166.093,352.715,135.734,357.616,111.526,376.497z"/>
	</g>
</g>
<g>
	<g>
		<path d="M510.524,372.979c-3.581-7.471-12.539-10.624-20.011-7.043c-5.94,2.848-11.657,6.401-16.992,10.562
			c-21.732,16.951-49.815,16.951-71.548,0c-22.589-17.619-50.535-23.074-76.446-16.375c4.852,8.734,7.993,18.486,9.045,28.766
			c16.684-3.774,34.476-0.027,48.949,11.264c16.031,12.504,34.782,19.114,54.225,19.114s38.193-6.609,54.224-19.113
			c3.638-2.837,7.51-5.248,11.511-7.165C510.952,389.408,514.105,380.449,510.524,372.979z"/>
	</g>
</g>
<g>
	<g>
		<path d="M510.525,432.979c-3.582-7.471-12.54-10.624-20.012-7.043c-5.94,2.848-11.657,6.401-16.992,10.562
			c-21.732,16.951-49.815,16.951-71.548,0c-20.844-16.258-46.249-22.146-70.407-17.698c-0.352,1.128-0.724,2.253-1.131,3.37
			c-3.644,10.009-6.787,18.818-10.429,29.019l-0.275,0.771c-0.362,1.013-0.731,2.05-1.107,3.101
			c20.566-11.602,45.661-9.913,64.898,5.092c16.031,12.504,34.782,19.114,54.225,19.114s38.193-6.609,54.224-19.113
			c3.638-2.837,7.51-5.248,11.511-7.165C510.953,449.407,514.106,440.448,510.525,432.979z"/>
	</g>
</g>
<g>
	<g>
		<path d="M134.999,268.003c-8.284,0-15-6.716-15-15v-25.525c0-2.847-0.692-5.684-2.206-8.095
			c-3.635-5.791-10.365-8.261-16.555-6.658c-28.41,7.358-54.134,24.312-72.435,47.738c-17.032,21.804-27.041,48.56-28.587,76.056
			c4.682-1.635,9.67-2.515,14.791-2.515c6.427,0,12.663,1.346,18.536,4.002c8.769,3.967,17.14,9.041,24.884,15.082
			c5.34,4.165,11.329,6.367,17.318,6.367c5.994,0,11.985-2.203,17.326-6.368c21.376-16.673,46.672-25.485,73.154-25.485
			c16.497,0,32.563,3.432,47.508,10.06c7.25-5.679,15.509-9.98,24.385-12.666l20.602-56.994
			C204.901,268.003,190.176,268.003,134.999,268.003z"/>
	</g>
</g>
<g>
	<g>
		<path d="M372.083,90.576c-7.954-2.871-16.772,1.216-19.673,9.185l-18.678,50.243h-93.63l-43.27-25.269
			c-20.402-13.621-46.83,1.547-46.83,25.269l-0.001,87.999h89.9v-28h37.096h34.429h0.162l-52.79,143.052
			c-18.506-0.141-35.971,11.225-42.661,29.578c-0.003,0.008-0.005,0.014-0.008,0.022l-0.001,0.001
			c-0.021,0.057-0.041,0.114-0.061,0.171c-0.95,2.645-29.92,83.205-31.854,88.509c-2.052,5.62-0.618,12.118,4.164,16.409
			c1.438,1.29,3.156,2.231,4.972,2.892l56.206,20.458c1.66,0.604,3.396,0.905,5.131,0.905c2.17,0,4.335-0.471,6.339-1.405
			c3.605-1.681,6.396-4.726,7.757-8.464c9.888-27.166,16.168-44.765,21.215-58.907c3.734-10.462,8.503-20.781,12.248-31.068
			c2.14-5.881,3.025-12.012,2.632-18.223c-0.803-12.666-8.421-22.854-17.882-30.637l56.491-153.292h0.643h0.868
			c16.729,0,30.352-13.257,30.352-30c0-9.487-4.647-17.516-11.492-22.989l17.41-46.766
			C384.167,102.295,380.051,93.476,372.083,90.576z"/>
	</g>
</svg>
